<svg width="24" height="24" viewBox="0 0 24 24" fill="none" xmlns="http://www.w3.org/2000/svg">
<path d="M2.76783 21.157H16.2312C17.3361 21.157 18.3571 20.7913 19.1796 20.1748L22.958 23.9532L23.9532 22.958L20.1748 19.1796C20.7913 18.3571 21.157 17.3361 21.157 16.2312C21.157 13.7542 19.3188 11.6986 16.9349 11.356V2.76783H15.5276V-0.046875H2.06415C0.900148 -0.046875 -0.046875 0.900148 -0.046875 2.06415V18.3423C-0.046875 19.8943 1.21582 21.157 2.76783 21.157ZM1.36048 18.3423V4.05415C1.58075 4.13215 1.81751 4.17518 2.06415 4.17518H2.76783V19.7496C1.99183 19.7496 1.36048 19.1183 1.36048 18.3423ZM19.7496 16.2312C19.7496 18.1712 18.1712 19.7496 16.2312 19.7496C14.2912 19.7496 12.7129 18.1712 12.7129 16.2312C12.7129 14.2912 14.2912 12.7129 16.2312 12.7129C18.1712 12.7129 19.7496 14.2912 19.7496 16.2312ZM15.5276 4.17518V11.356C13.1437 11.6986 11.3057 13.7542 11.3057 16.2312C11.3057 17.6084 11.8739 18.855 12.7877 19.7496H4.17518V4.17518H15.5276ZM2.06415 1.36048H14.1202V2.76783H2.06415C1.67615 2.76783 1.36048 2.45215 1.36048 2.06415C1.36048 1.67615 1.67615 1.36048 2.06415 1.36048Z" fill="#222222" stroke="#222222" stroke-width="0.1"/>
<path d="M5.58252 5.58252H14.1202V6.98969H5.58252V5.58252Z" fill="#1AB248" stroke="#1AB248" stroke-width="0.1"/>
<path d="M5.58252 8.5H10.5825V9.90717H5.58252V8.5Z" fill="#1AB248" stroke="#1AB248" stroke-width="0.1"/>
</svg>
