<svg width="23" height="23" viewBox="0 0 23 23" fill="none" xmlns="http://www.w3.org/2000/svg">
<g clip-path="url(#clip0)">
<path d="M20.2491 0H2.75109C1.63207 0 0.72168 0.910394 0.72168 2.02941V20.9706C0.72168 22.0896 1.63207 23 2.75109 23H20.2491C21.3681 23 22.2785 22.0896 22.2785 20.9706V2.02941C22.2785 0.910394 21.3681 0 20.2491 0ZM20.9256 20.9706C20.9256 21.3436 20.6221 21.6471 20.2491 21.6471H2.75109C2.37809 21.6471 2.07462 21.3436 2.07462 20.9706V2.02941C2.07462 1.65641 2.37809 1.35294 2.75109 1.35294H20.2491C20.6221 1.35294 20.9256 1.65641 20.9256 2.02941V20.9706Z" fill="#222222"/>
<path d="M18.761 3.19434H4.23946C3.86587 3.19434 3.56299 3.49721 3.56299 3.87081V7.91461C3.56299 8.2882 3.86587 8.59108 4.23946 8.59108H18.761C19.1346 8.59108 19.4375 8.2882 19.4375 7.91461V3.87081C19.4375 3.49721 19.1346 3.19434 18.761 3.19434ZM18.0846 7.23814H4.91593V4.54728H18.0846V7.23814Z" fill="#1AB248"/>
<path d="M7.71195 10.2898H5.00606C4.63247 10.2898 4.32959 10.5927 4.32959 10.9663V13.6721C4.32959 14.0457 4.63247 14.3486 5.00606 14.3486H7.71195C8.08554 14.3486 8.38842 14.0457 8.38842 13.6721V10.9663C8.38842 10.5926 8.08554 10.2898 7.71195 10.2898ZM7.03548 12.9957H5.68253V11.6427H7.03548V12.9957Z" fill="#222222"/>
<path d="M7.71195 15.7466H5.00606C4.63247 15.7466 4.32959 16.0495 4.32959 16.4231V19.1289C4.32959 19.5025 4.63247 19.8054 5.00606 19.8054H7.71195C8.08554 19.8054 8.38842 19.5025 8.38842 19.1289V16.4231C8.38842 16.0494 8.08554 15.7466 7.71195 15.7466ZM7.03548 18.4525H5.68253V17.0995H7.03548V18.4525Z" fill="#222222"/>
<path d="M13.2364 10.2898H10.5305C10.1569 10.2898 9.854 10.5927 9.854 10.9663V13.6721C9.854 14.0457 10.1569 14.3486 10.5305 14.3486H13.2364C13.61 14.3486 13.9128 14.0457 13.9128 13.6721V10.9663C13.9128 10.5926 13.61 10.2898 13.2364 10.2898ZM12.5599 12.9957H11.2069V11.6427H12.5599V12.9957Z" fill="#222222"/>
<path d="M13.2364 15.7466H10.5305C10.1569 15.7466 9.854 16.0495 9.854 16.4231V19.1289C9.854 19.5025 10.1569 19.8054 10.5305 19.8054H13.2364C13.61 19.8054 13.9128 19.5025 13.9128 19.1289V16.4231C13.9128 16.0494 13.61 15.7466 13.2364 15.7466ZM12.5599 18.4525H11.2069V17.0995H12.5599V18.4525Z" fill="#222222"/>
<path d="M18.7608 10.2898H16.0549C15.6813 10.2898 15.3784 10.5927 15.3784 10.9663V19.129C15.3784 19.5026 15.6813 19.8055 16.0549 19.8055H18.7608C19.1344 19.8055 19.4372 19.5026 19.4372 19.129V10.9663C19.4372 10.5926 19.1344 10.2898 18.7608 10.2898ZM18.0843 18.4525H16.7314V11.6427H18.0843V18.4525Z" fill="#222222"/>
</g>
<defs>
<clipPath id="clip0">
<rect width="23" height="23" fill="white"/>
</clipPath>
</defs>
</svg>
