<svg width="20" height="26" viewBox="0 0 20 26" fill="none" xmlns="http://www.w3.org/2000/svg">
<path d="M5.88954 21.4849H2.94482V22.9572H5.88954V21.4849Z" fill="#1AB248"/>
<path d="M17.3865 18.5401H12.515C12.2204 18.5401 11.9656 18.3661 11.8481 18.1155C14.4377 17.1651 16.1959 14.7004 16.1959 11.9145V10.054C17.1361 9.21645 17.6683 8.03621 17.6683 6.76125C17.6683 4.32568 15.6868 2.34418 13.2512 2.34418C12.377 2.34418 11.543 2.59566 10.8304 3.06461C9.87558 1.70925 8.30806 0.871826 6.6256 0.871826C3.7841 0.871826 1.47236 3.18357 1.47236 6.02507C1.47236 6.79659 1.64639 7.55019 1.97065 8.2336H0V15.5954H4.07445C4.84066 16.7295 5.95529 17.6247 7.29253 18.1155C7.17499 18.3661 6.92022 18.5401 6.6256 18.5401H1.75353L0 22.0472V26H19.1406V22.0471L17.3865 18.5401ZM1.47236 14.123V9.70596H2.94471V11.9145C2.94471 12.6836 3.07933 13.428 3.32782 14.123H1.47236ZM3.34828 7.69948C3.08606 7.18612 2.94471 6.61284 2.94471 6.02507C2.94471 3.99543 4.59596 2.34418 6.6256 2.34418C8.04849 2.34418 9.35697 3.18593 9.95916 4.48857L10.4057 5.45458L11.1521 4.69602C11.7102 4.12887 12.4556 3.81654 13.2512 3.81654C14.8749 3.81654 16.1959 5.13754 16.1959 6.76125C16.1959 7.18023 16.109 7.58361 15.9465 7.95214C15.5778 7.24526 14.8383 6.76125 13.9874 6.76125H12.515L12.1872 6.76297L11.968 7.00468C11.957 7.01695 10.8392 8.2336 9.57031 8.2336C8.30144 8.2336 7.18367 7.01695 7.17405 7.00635L6.95457 6.76125H5.15324C4.40809 6.76125 3.74842 7.13258 3.34828 7.69948ZM5.98626 15.5954H8.83413V14.123H4.92164C4.59714 13.4487 4.41707 12.6981 4.41707 11.9145V8.96978C4.41707 8.56385 4.74732 8.2336 5.15324 8.2336H6.32063C6.82697 8.70952 8.06684 9.70596 9.57031 9.70596C11.0738 9.70596 12.3136 8.70952 12.82 8.2336H13.9874C14.3933 8.2336 14.7236 8.56385 14.7236 8.96978V11.9145C14.7236 14.2475 13.1336 16.2913 10.857 16.8847L10.3065 17.0281V17.8039C10.3065 18.5225 10.6517 19.1619 11.1847 19.5654L9.57031 21.1799L7.95587 19.5655C8.48897 19.1619 8.83413 18.5225 8.83413 17.8039V17.0281L8.28362 16.8846C7.3951 16.6531 6.61191 16.1998 5.98626 15.5954ZM17.6683 24.5277H1.47236V22.3948L2.66354 20.0125H6.32068L9.57031 23.2621L12.8199 20.0125H16.4767L17.6683 22.3948V24.5277Z" fill="#222222"/>
<path d="M10.9688 14.8059C10.9688 15.6343 10.2972 16.3059 9.46875 16.3059C8.64032 16.3059 7.96875 15.6343 7.96875 14.8059C7.96875 13.9775 8.64032 13.3059 9.46875 13.3059C10.2972 13.3059 10.9688 13.9775 10.9688 14.8059Z" fill="#1AB248"/>
</svg>
