<svg width="115" height="48" viewBox="0 0 115 48" fill="none" xmlns="http://www.w3.org/2000/svg">
<path fill-rule="evenodd" clip-rule="evenodd" d="M78 32H86.0987L89.5784 21.9342L93.1956 18.8489L96.0456 27.9519C96.9271 30.7655 97.8339 32 99.8131 32H106.013L99.617 14.1373L115 0H105.065L95.7273 10.066C94.6399 11.2378 93.5394 12.3911 92.4358 13.7688H92.342L97.0043 0H88.9057L78 32Z" fill="#1AB248"/>
<path fill-rule="evenodd" clip-rule="evenodd" d="M77.3099 0.365012C79.8729 0.365425 82.3586 0.365825 84.4407 0.366006L82.7538 5.54427C82.2238 7.17122 80.8779 7.9496 77.912 7.9496C72.7622 7.9496 65.1421 7.9487 59.9917 7.94781L61.6787 2.76954C62.2086 1.14169 63.5541 0.36377 66.5202 0.36377C69.5883 0.36377 73.533 0.364404 77.3099 0.365012ZM62.3607 12.2531C67.5103 12.2531 75.1307 12.254 80.281 12.2553L78.5941 17.4334C78.0641 19.0608 76.7187 19.8387 73.7523 19.8387C68.6024 19.8387 60.9824 19.8378 55.832 19.8364L57.5189 14.6589C58.0489 13.0312 59.3946 12.2531 62.3607 12.2531ZM75.9177 24.1437C70.7674 24.1428 63.1473 24.1419 57.9974 24.1419C55.0309 24.1419 53.6856 24.9203 53.1557 26.5468L51.4688 31.7257C56.6191 31.7262 64.2392 31.7278 69.3893 31.7278C72.3552 31.7278 73.7008 30.9492 74.2308 29.3218L75.9177 24.1437Z" fill="#1AB248"/>
<path fill-rule="evenodd" clip-rule="evenodd" d="M40.7825 7.70742L45.1875 7.70925C48.9407 7.71016 48.084 12.3189 46.1845 16.8106C44.5109 20.7695 41.5445 24.2632 38.0057 24.2627L30.6622 24.2618C27.7332 24.2618 26.3828 25.0559 25.8131 26.7153L24 31.9991L29.3849 32L34.6486 31.9569C39.3167 31.919 43.1384 31.5873 47.6074 27.6384C52.3303 23.4667 57.8369 12.6296 56.8935 6.36145C56.1544 1.44955 53.47 0.00228131 46.9697 0.00182505L35.1243 0L28.2272 19.847L32.6095 19.8525C35.2176 19.8554 36.5265 19.8876 37.9138 16.217L40.7825 7.70742Z" fill="#1AB248"/>
<path fill-rule="evenodd" clip-rule="evenodd" d="M20.2061 7.73503L16.9456 7.73594C10.4139 7.73913 4.81683 24.2654 12.5398 24.2627L17.502 24.2618C20.3639 24.2618 22.4884 25.3059 21.5477 28.1213L20.2514 31.9991L14.9886 32L10.7077 31.9569C5.23131 31.9021 1.69736 29.2049 0.424896 25.1095C-0.952092 20.6776 0.99197 11.4339 6.63438 5.51257C9.90826 2.07737 14.4433 0.00228131 20.2578 0.00182505L31 0L29.3208 4.84323C28.2358 7.97251 26.0192 7.73913 24.7542 7.73868L20.2061 7.73503Z" fill="#1AB248"/>
<path d="M5.51953 39.2773H5.64844C6.30469 39.2773 6.90039 39.4258 7.43555 39.7227C7.97461 40.0156 8.39258 40.4297 8.68945 40.9648C8.99023 41.5 9.14062 42.1016 9.14062 42.7695C9.14062 43.4336 8.99023 44.0312 8.68945 44.5625C8.39258 45.0898 7.97852 45.5 7.44727 45.793C6.91992 46.0859 6.32812 46.2344 5.67188 46.2383H5.51953V47.3516H4.0957V46.2383H3.95508C3.29492 46.2383 2.69531 46.0918 2.15625 45.7988C1.61719 45.502 1.19922 45.0898 0.902344 44.5625C0.609375 44.0352 0.462891 43.4414 0.462891 42.7812C0.462891 42.1133 0.611328 41.5117 0.908203 40.9766C1.20508 40.4414 1.62109 40.0254 2.15625 39.7285C2.69141 39.4277 3.29102 39.2773 3.95508 39.2773H4.0957V38.1172H5.51953V39.2773ZM3.95508 40.4668C3.29883 40.4668 2.78516 40.6719 2.41406 41.082C2.04688 41.4922 1.86328 42.0586 1.86328 42.7812C1.86328 43.4844 2.04688 44.0391 2.41406 44.4453C2.78125 44.8477 3.30078 45.0488 3.97266 45.0488H4.0957V40.4668H3.95508ZM5.51953 40.4668V45.0488H5.66016C6.31641 45.0488 6.82617 44.8438 7.18945 44.4336C7.55664 44.0234 7.74023 43.4688 7.74023 42.7695C7.74023 42.0547 7.55664 41.4922 7.18945 41.082C6.82617 40.6719 6.31055 40.4668 5.64258 40.4668H5.51953ZM12.2721 43.8301V47H10.7897V38.4688H14.0534C15.0065 38.4688 15.7623 38.7168 16.3209 39.2129C16.8834 39.709 17.1647 40.3652 17.1647 41.1816C17.1647 42.0176 16.8893 42.668 16.3385 43.1328C15.7916 43.5977 15.0241 43.8301 14.0358 43.8301H12.2721ZM12.2721 42.6406H14.0534C14.5807 42.6406 14.983 42.5176 15.2604 42.2715C15.5377 42.0215 15.6764 41.6621 15.6764 41.1934C15.6764 40.7324 15.5358 40.3652 15.2545 40.0918C14.9733 39.8145 14.5866 39.6719 14.0944 39.6641H12.2721V42.6406ZM22.5579 45.0137H19.2532L18.5618 47H17.0208L20.2434 38.4688H21.5735L24.802 47H23.2552L22.5579 45.0137ZM19.6692 43.8184H22.1419L20.9055 40.2793L19.6692 43.8184ZM32.9081 47H31.4316V43.209H27.6171V47H26.1347V38.4688H27.6171V42.0195H31.4316V38.4688H32.9081V47ZM41.3892 38.4688V47H39.9127V43.6426C39.2798 43.8027 38.6197 43.8828 37.9322 43.8828C36.9127 43.8828 36.1412 43.6582 35.6177 43.209C35.0943 42.7598 34.8306 42.082 34.8267 41.1758V38.4688H36.3033V41.1875C36.3072 41.7305 36.4322 42.1172 36.6783 42.3477C36.9244 42.5781 37.3423 42.6934 37.9322 42.6934C38.6119 42.6934 39.272 42.6113 39.9127 42.4473V38.4688H41.3892ZM48.4113 45.0137H45.1066L44.4152 47H42.8742L46.0969 38.4688H47.427L50.6555 47H49.1086L48.4113 45.0137ZM45.5227 43.8184H47.9953L46.759 40.2793L45.5227 43.8184ZM57.2147 38.4688H58.6971V47H57.2147V40.9238L53.4705 47H51.9881V38.4688H53.4705V44.5508L57.2147 38.4688ZM57.2616 36.2949C57.2616 36.7871 57.0897 37.1855 56.7459 37.4902C56.4022 37.7949 55.9432 37.9473 55.369 37.9473C54.7948 37.9473 54.3358 37.7949 53.992 37.4902C53.6483 37.1855 53.4764 36.7871 53.4764 36.2949H54.5428C54.5428 36.5527 54.6151 36.7539 54.7596 36.8984C54.908 37.0391 55.1112 37.1094 55.369 37.1094C55.6268 37.1094 55.828 37.0391 55.9725 36.8984C56.117 36.7539 56.1893 36.5527 56.1893 36.2949H57.2616ZM65.0981 40.7949C65.0981 40.4121 64.9536 40.1074 64.6645 39.8809C64.3755 39.6543 63.9829 39.541 63.4868 39.541C63.061 39.541 62.7055 39.6543 62.4204 39.8809C62.1352 40.1035 61.9927 40.3926 61.9927 40.748H60.5161C60.5161 40.2832 60.645 39.8691 60.9028 39.5059C61.1606 39.1426 61.518 38.8613 61.9751 38.6621C62.4321 38.459 62.936 38.3574 63.4868 38.3574C64.4634 38.3574 65.2212 38.5703 65.7602 38.9961C66.3032 39.4219 66.5747 40.0176 66.5747 40.7832C66.5747 41.1699 66.4575 41.5254 66.2231 41.8496C65.9888 42.1738 65.6606 42.4297 65.2388 42.6172C65.7153 42.7812 66.0786 43.0312 66.3286 43.3672C66.5825 43.6992 66.7095 44.1133 66.7095 44.6094C66.7095 45.375 66.4165 45.9844 65.8305 46.4375C65.2446 46.8867 64.4634 47.1113 63.4868 47.1113C62.8852 47.1113 62.3403 47.0039 61.852 46.7891C61.3677 46.5742 61.0024 46.2812 60.7563 45.9102C60.5141 45.5391 60.393 45.1133 60.393 44.6328H61.8696C61.8696 45 62.022 45.3105 62.3266 45.5645C62.6313 45.8145 63.018 45.9395 63.4868 45.9395C64.0102 45.9395 64.4302 45.8164 64.7466 45.5703C65.0669 45.3242 65.227 45.0039 65.227 44.6094C65.227 44.1289 65.0864 43.7812 64.8052 43.5664C64.5278 43.3477 64.1196 43.2383 63.5805 43.2383H62.5786V42.0664H63.5278C64.5747 42.0664 65.0981 41.6426 65.0981 40.7949ZM73.673 38.4688H75.1554V47H73.673V40.9238L69.9288 47H68.4464V38.4688H69.9288V44.5508L73.673 38.4688ZM84.0642 47H82.5877V43.209H78.7732V47H77.2908V38.4688H78.7732V42.0195H82.5877V38.4688H84.0642V47ZM91.6371 39.6641H87.6996V47H86.223V38.4688H91.6371V39.6641Z" fill="#1AB248"/>
</svg>
