<svg width="24" height="24" viewBox="0 0 24 24" fill="none" xmlns="http://www.w3.org/2000/svg">
<path d="M23.6768 8.11212C23.2941 5.84696 22.1171 3.78265 20.3625 2.29971C18.608 0.816585 16.3766 0 14.0793 0C13.6922 0 13.3784 0.313804 13.3784 0.700896V9.73341C13.3784 9.93975 13.4693 10.1355 13.6268 10.2687C13.7544 10.3764 13.9148 10.4343 14.0793 10.4343C14.1182 10.4343 14.1572 10.431 14.1961 10.4244L23.1023 8.91993C23.2856 8.88905 23.4492 8.78652 23.5569 8.63501C23.6645 8.48349 23.7076 8.29525 23.6768 8.11212ZM14.7802 8.90422V1.43085C18.3187 1.724 21.2707 4.21908 22.1492 7.65923L14.7802 8.90422Z" fill="#1AB248"/>
<path d="M22.1245 11.9745C22.0825 11.5734 21.8732 11.2049 21.5507 10.9639C21.2292 10.7237 20.8187 10.6279 20.4241 10.7009V10.701L12.0269 12.256V3.73539C12.0269 3.33368 11.8576 2.94695 11.5627 2.67409C11.2684 2.40177 10.8704 2.26324 10.471 2.29467C7.75681 2.50649 5.23779 3.72516 3.37836 5.72641C1.50851 7.73845 0.479004 10.3602 0.479004 13.1084C0.479004 16.0046 1.60665 18.728 3.65104 20.7733C3.65652 20.7788 3.66201 20.7843 3.66767 20.7897C5.71498 22.831 8.43468 23.9552 11.3258 23.9552C11.3483 23.9552 11.3702 23.9541 11.3922 23.9521C14.2672 23.9367 16.9677 22.8102 19.0026 20.7753C19.0185 20.7594 19.0333 20.743 19.0474 20.7261C20.4234 19.335 21.3972 17.6022 21.8647 15.7117L21.878 15.6568C21.9314 15.4361 21.9776 15.2168 22.0151 15.0058C22.1938 14.0065 22.2305 12.9867 22.1245 11.9745ZM10.58 3.69226C10.581 3.69226 10.5825 3.69208 10.5843 3.69208C10.5906 3.69208 10.6002 3.69354 10.6107 3.70323C10.6249 3.71639 10.6249 3.73028 10.6249 3.73539V12.8081L8.78102 14.6522L4.16497 19.2681C2.68696 17.5552 1.8808 15.3938 1.8808 13.1084C1.8808 8.20888 5.70201 4.07296 10.58 3.69226ZM11.3329 22.5503C11.3307 22.5503 11.3289 22.5505 11.3258 22.5503C11.3052 22.5503 11.2845 22.5512 11.2642 22.5532C8.99722 22.5388 6.85433 21.7301 5.15573 20.2601L11.3258 14.0898L17.4977 20.2617C15.7839 21.7427 13.6208 22.5503 11.3329 22.5503ZM20.6348 14.7598C20.6023 14.9435 20.5621 15.1345 20.5157 15.3264L20.5042 15.3737C20.1483 16.8126 19.4558 18.1463 18.487 19.2684L14.5413 15.3229L12.7636 13.5452L20.6793 12.0794C20.6846 12.0783 20.6972 12.0762 20.7116 12.0869C20.7281 12.0994 20.7297 12.1154 20.7302 12.1207C20.8227 13.0018 20.7907 13.8893 20.6348 14.7598Z" fill="#222222"/>
</svg>
