<svg width="32" height="32" viewBox="0 0 32 32" fill="none" xmlns="http://www.w3.org/2000/svg">
<path d="M29.318 4.00691L27.9924 2.68134C27.0177 1.70657 25.4997 1.59915 24.4043 2.35777C19.2901 -0.785923 12.7091 -0.785923 7.59491 2.35777C6.49948 1.59915 4.9815 1.70651 4.0068 2.68134L2.68128 4.00691C1.69558 4.99255 1.60266 6.50997 2.3574 7.59553C-0.785915 12.7096 -0.78579 19.2904 2.35771 24.4044C1.5991 25.4997 1.70639 27.0176 2.68122 27.9925L4.0068 29.318C4.97675 30.288 6.49429 30.406 7.59547 29.6419C10.1525 31.2135 13.0758 31.9999 15.9996 31.9999C18.9236 31.9999 21.8472 31.2134 24.4043 29.6415C25.4983 30.3992 27.0153 30.2951 27.9924 29.318L29.318 27.9924C30.2928 27.0176 30.4001 25.4997 29.6415 24.4043C32.785 19.2903 32.7851 12.7096 29.6418 7.59546C30.3968 6.50966 30.3035 4.9923 29.318 4.00691ZM26.6668 4.00691L27.9924 5.33249C28.3588 5.69886 28.3588 6.29169 27.9924 6.65807C27.1191 7.53141 23.7515 10.899 23.2038 11.4467C22.5471 10.4013 21.6448 9.48156 20.5525 8.7955L25.3412 4.00685C25.7067 3.64148 26.3014 3.64142 26.6668 4.00691ZM15.9996 22.6235C12.3006 22.6235 9.37578 19.7176 9.37578 15.9997C9.37578 12.2919 12.2911 9.3759 15.9996 9.3759C19.7065 9.3759 22.6234 12.2896 22.6234 15.9997C22.6234 19.7049 19.7098 22.6235 15.9996 22.6235ZM22.995 3.70203L18.7521 7.94496C17.8798 7.65333 16.9531 7.50123 15.9997 7.50123C15.062 7.50123 14.1499 7.64808 13.2903 7.93034L9.01147 3.69803C13.3178 1.26165 18.6897 1.26296 22.995 3.70203ZM4.0068 5.33255L5.33237 4.00698C5.69775 3.64154 6.29251 3.64148 6.66157 4.0106C7.37045 4.71173 11.019 8.32071 11.479 8.77575C10.4215 9.43326 9.49013 10.3407 8.79538 11.4468C8.24811 10.8996 4.87902 7.53047 4.00673 6.65819C3.64049 6.29176 3.64049 5.69886 4.0068 5.33255ZM3.70198 9.0044L7.94491 13.2473C7.65327 14.1196 7.50117 15.0463 7.50117 15.9997C7.50117 16.9531 7.65327 17.8799 7.94491 18.7521L3.70198 22.995C1.26153 18.6874 1.26153 13.3121 3.70198 9.0044ZM5.33237 27.9925L4.0068 26.6669C3.6413 26.3015 3.6413 25.7068 4.0068 25.3414C4.8842 24.464 8.24835 21.0998 8.79544 20.5527C9.45383 21.601 10.3632 22.53 11.4791 23.2238C11.0254 23.6726 7.3712 27.2871 6.65801 27.9925C6.29264 28.358 5.69793 28.3581 5.33237 27.9925ZM9.01147 28.3014L13.2903 24.0691C14.1499 24.3514 15.0619 24.4982 15.9996 24.4982C16.953 24.4982 17.8798 24.3461 18.752 24.0545L22.9949 28.2974C18.6897 30.7365 13.3179 30.7379 9.01147 28.3014ZM27.9924 26.6669L26.6668 27.9925C26.3012 28.3581 25.7067 28.358 25.3412 27.9925C24.4414 27.0927 21.0858 23.7371 20.5526 23.2039C21.0819 22.8714 21.5765 22.4781 22.0272 22.0273C22.4779 21.5766 22.8713 21.0821 23.2038 20.5527L27.9924 25.3413C28.3579 25.7068 28.3579 26.3015 27.9924 26.6669ZM28.2973 22.995L24.0544 18.7521C24.346 17.8799 24.4981 16.9531 24.4981 15.9997C24.4981 15.0463 24.346 14.1196 24.0544 13.2473L28.2973 9.0044C30.7377 13.3121 30.7377 18.6874 28.2973 22.995Z" fill="black"/>
</svg>
