<svg width="24" height="24" viewBox="0 0 24 24" fill="none" xmlns="http://www.w3.org/2000/svg">
<path d="M12 17.0889C12.5178 17.0889 12.9375 16.6688 12.9375 16.1505C12.9375 15.6323 12.5178 15.2122 12 15.2122C11.4822 15.2122 11.0625 15.6323 11.0625 16.1505C11.0625 16.6688 11.4822 17.0889 12 17.0889Z" fill="#1AB248"/>
<path fill-rule="evenodd" clip-rule="evenodd" d="M17.43 4.71661H23.2969C23.6852 4.71661 24 5.03175 24 5.42044V22.3118C24 22.7005 23.6852 23.0156 23.2969 23.0156H0.703125C0.314812 23.0156 0 22.7005 0 22.3118V5.42048C0 5.03175 0.314812 4.71666 0.703125 4.71666H6.56991L9.62226 1.91128C10.2726 1.31353 11.1171 0.984375 12 0.984375C12.8829 0.984375 13.7274 1.31353 14.3777 1.91123L17.43 4.71661ZM13.4266 2.94816C12.6133 2.20069 11.3867 2.20059 10.5733 2.94816L8.64909 4.71666H15.3509L13.4266 2.94816ZM1.40625 13.3534V21.608H22.5938V13.3534L20.7074 16.1534C20.6345 16.2614 20.5332 16.3471 20.4146 16.4009C18.8912 17.0918 17.2421 17.5824 15.5 17.8655V16.4386C16.9678 16.1825 18.3601 15.7676 19.654 15.1992L22.5938 10.8358V6.12427H1.40625V10.8358L4.34597 15.1992C5.63987 15.7676 7.03218 16.1825 8.5 16.4386V17.8655C6.75789 17.5824 5.10882 17.0918 3.58542 16.4009C3.46683 16.3471 3.36548 16.2614 3.29264 16.1534L1.40625 13.3534Z" fill="black"/>
<path d="M9 14C9 13.7239 9.22386 13.5 9.5 13.5H14.5C14.7761 13.5 15 13.7239 15 14V18.5C15 18.7761 14.7761 19 14.5 19H9.5C9.22386 19 9 18.7761 9 18.5V14Z" stroke="#1AB248"/>
</svg>
