<svg width="32" height="31" viewBox="0 0 32 31" fill="none" xmlns="http://www.w3.org/2000/svg">
<path d="M32 0V26.2662H21.7292V28.1443H23.6065V30.0193H8.39356V28.1443H10.2708V26.2662H0V0H32ZM12.1459 28.1443H19.8541V26.2662H12.1459V28.1443H12.1459ZM1.87506 24.3911H30.1249V20.6364H1.87513V24.3911H1.87506ZM1.87506 18.7614H30.1249V1.87513H1.87513V18.7614H1.87506Z" fill="black"/>
<path d="M19.2536 6.92914L20.5795 5.60327L25.2944 10.3182L20.5795 15.0331L19.2536 13.7072L22.6427 10.3182L19.2536 6.92914Z" fill="black"/>
<path d="M11.4205 5.60327L12.7463 6.92914L9.35728 10.3182L12.7463 13.7072L11.4205 15.0331L6.70559 10.3182L11.4205 5.60327Z" fill="black"/>
<path d="M15.8311 4.6647L18.0078 15.6074L16.1687 15.9733L13.992 5.03054L15.8311 4.6647Z" fill="black"/>
</svg>
