<svg width="27" height="27" viewBox="0 0 27 27" fill="none" xmlns="http://www.w3.org/2000/svg">
<path d="M12.709 25.3387V27H14.291V25.3387C20.2115 24.9516 24.951 20.2212 25.3387 14.291H27V12.709H25.3387C24.9516 6.78831 20.221 2.04902 14.291 1.66134V0H12.709V1.66134C6.78852 2.0484 2.04902 6.77884 1.66134 12.709H0V14.291H1.66134C2.0484 20.2115 6.77884 24.951 12.709 25.3387ZM12.709 3.24687V4.79883H14.291V3.24687C19.3319 3.63229 23.3677 7.66811 23.7531 12.709H22.2012V14.2904H23.7531C23.3677 19.3315 19.3319 23.3677 14.291 23.7531V22.2012H12.709V23.7531C7.66811 23.3677 3.63229 19.3319 3.24687 14.291H4.79883V12.709H3.24687C3.63229 7.66811 7.66811 3.63229 12.709 3.24687Z" fill="#222222"/>
<path d="M16.6641 10.3359C16.6641 8.59117 15.2448 7.17188 13.5 7.17188C11.7552 7.17188 10.3359 8.59117 10.3359 10.3359C10.3359 12.0807 11.7552 13.5 13.5 13.5C15.2448 13.5 16.6641 12.0807 16.6641 10.3359ZM13.5 11.918C12.6276 11.918 11.918 11.2083 11.918 10.3359C11.918 9.46355 12.6276 8.75391 13.5 8.75391C14.3724 8.75391 15.082 9.46355 15.082 10.3359C15.082 11.2083 14.3724 11.918 13.5 11.918Z" fill="#1AB248"/>
<path d="M18.2461 18.2461C18.2461 15.6292 16.1169 13.5 13.5 13.5C10.8831 13.5 8.75391 15.6292 8.75391 18.2461V19.8281H18.2461V18.2461ZM10.3359 18.2461C10.3359 16.5013 11.7552 15.082 13.5 15.082C15.2448 15.082 16.6641 16.5013 16.6641 18.2461H10.3359Z" fill="#1AB248"/>
</svg>
