<svg width="33" height="33" viewBox="0 0 33 33" fill="none" xmlns="http://www.w3.org/2000/svg">
<path d="M32.9935 0.941622C32.9774 0.431324 32.5687 0.0225827 32.0585 0.00659151C31.6083 -0.00811003 20.9769 -0.287246 15.6131 5.07656C15.0794 5.6102 14.5656 6.19175 14.0651 6.79342C12.7056 6.60049 8.56355 6.65465 2.61865 12.5996C2.02621 13.1921 2.44165 14.2137 3.26584 14.25C3.36366 14.2545 5.57985 14.4017 7.95047 16.5966C7.08269 18.3708 6.56627 19.6208 6.51043 19.7575C6.36348 20.1181 6.44698 20.5316 6.72218 20.8067L6.73966 20.8242C5.73241 20.9635 4.75927 21.4018 3.98654 22.1746C2.34551 23.8156 0.229588 30.691 0.015835 31.8584C-0.0409078 32.1716 0.0592303 32.4922 0.283687 32.7166C0.508078 32.941 0.828675 33.0412 1.14192 32.9845C2.3094 32.7708 9.18475 30.6548 10.8257 29.0138C11.5984 28.241 12.0368 27.2679 12.1761 26.2606L12.1936 26.2781C12.4688 26.5533 12.8822 26.6368 13.2428 26.4898C13.3798 26.4338 14.6352 25.9152 16.4163 25.0436C18.7748 27.4813 18.9173 29.8057 18.9212 29.8987C18.9777 31.6974 21.1105 30.3272 20.591 30.5336C20.592 30.5325 20.593 30.5316 20.5939 30.5305C27.003 24.1096 26.5417 19.7969 26.3305 18.8306C26.8871 18.3624 27.427 17.8839 27.9237 17.3872C33.2873 12.0232 33.0082 1.39176 32.9935 0.941622ZM31.0566 1.94346C31.0337 2.91653 30.9459 4.5573 30.6494 6.43458L26.5654 2.35065C28.4427 2.05417 30.0835 1.96628 31.0566 1.94346ZM5.29104 12.7388C8.64912 9.7414 11.1481 8.91476 12.5741 8.72551C11.1063 10.7717 9.84355 12.9409 8.85449 14.819C7.54682 13.7104 6.28294 13.0768 5.29104 12.7388ZM10.2598 25.9954C10.1977 26.4445 10.0081 27.0954 9.45776 27.6458C9.37923 27.7243 8.59083 28.4496 5.13874 29.7185C4.08203 30.107 3.10612 30.4256 2.34242 30.6576C2.57435 29.8942 2.89308 28.9181 3.28151 27.8612C4.55042 24.4091 5.27576 23.6208 5.3543 23.5422C5.90464 22.9919 6.5555 22.8022 7.00467 22.7401L8.45509 22.5395L10.4606 24.5449L10.2598 25.9954ZM20.433 27.8806C20.0796 26.8436 19.4009 25.5089 18.1942 24.1387C20.1326 23.1173 22.3807 21.8073 24.4812 20.2795C24.3726 21.642 23.6567 24.2689 20.433 27.8806ZM13.0991 24.4479L8.55214 19.9009C9.46647 17.8124 12.7826 10.6426 16.9809 6.44432C18.8852 4.54002 21.6465 3.44159 24.284 2.80479L30.1953 8.71609C29.5585 11.3536 28.4601 14.1149 26.5557 16.0192C22.3573 20.2175 15.1876 23.5336 13.0991 24.4479ZM17.6648 8.49609C15.7793 10.3816 15.7793 13.4499 17.6648 15.3353C19.5502 17.2207 22.6185 17.2207 24.5039 15.3353C26.3894 13.4498 26.3894 10.3815 24.5039 8.49609C22.6185 6.61068 19.5502 6.61068 17.6648 8.49609ZM23.1361 13.9674C22.0047 15.0988 20.164 15.0988 19.0326 13.9674C17.9012 12.8361 17.9012 10.9953 19.0326 9.86391C20.164 8.73254 22.0047 8.73254 23.1361 9.86391C24.2675 10.9953 24.2675 12.836 23.1361 13.9674Z" fill="#333333"/>
</svg>
