<svg width="24" height="24" viewBox="0 0 24 24" fill="none" xmlns="http://www.w3.org/2000/svg">
<path d="M22.8049 21.878L17.4585 16.5317C18.8927 14.8829 19.761 12.7317 19.761 10.3805C19.761 5.20488 15.5512 1 10.3805 1C5.20488 1 1 5.20976 1 10.3805C1 15.5512 5.20976 19.761 10.3805 19.761C12.7317 19.761 14.8829 18.8927 16.5317 17.4585L21.8781 22.8049C22.0049 22.9317 22.1756 23 22.3415 23C22.5073 23 22.6781 22.9366 22.8049 22.8049C23.0585 22.5512 23.0585 22.1317 22.8049 21.878ZM2.3122 10.3805C2.3122 5.93171 5.93171 2.31707 10.3756 2.31707C14.8244 2.31707 18.439 5.93659 18.439 10.3805C18.439 14.8244 14.8244 18.4488 10.3756 18.4488C5.93171 18.4488 2.3122 14.8293 2.3122 10.3805Z" fill="#333333" stroke="#333333" stroke-width="0.4"/>
</svg>
