<svg width="30" height="36" viewBox="0 0 30 36" fill="none" xmlns="http://www.w3.org/2000/svg">
<path d="M14.488 0.00916263C7.33561 0.260124 1.39372 5.84033 0.707271 12.9632C0.567027 14.3878 0.648221 15.7681 0.899182 17.0893C0.899182 17.0893 0.921326 17.2443 0.995138 17.5396C1.21658 18.5287 1.54873 19.4882 1.96208 20.3887C3.40142 23.7988 6.73035 29.5045 14.2001 35.7121C14.6578 36.096 15.3295 36.096 15.7945 35.7121C23.2643 29.5119 26.5932 23.8062 28.0399 20.3813C28.4607 19.4808 28.7854 18.5287 29.0069 17.5322C29.0733 17.2443 29.1028 17.0819 29.1028 17.0819C29.2726 16.1962 29.3612 15.2883 29.3612 14.3583C29.3612 6.25368 22.6516 -0.278705 14.488 0.00916263ZM14.9973 21.5033C11.1443 21.5033 8.02206 18.381 8.02206 14.528C8.02206 10.675 11.1443 7.55277 14.9973 7.55277C18.8503 7.55277 21.9726 10.675 21.9726 14.528C21.9726 18.381 18.8503 21.5033 14.9973 21.5033Z" fill="white"/>
</svg>
