<svg width="32" height="32" viewBox="0 0 32 32" fill="none" xmlns="http://www.w3.org/2000/svg">
<path d="M29.1253 11.0003H24.0004V2.25206C24.0004 1.46657 23.6015 0.75108 22.9333 0.338086C22.2652 -0.0748457 21.4469 -0.11172 20.7443 0.239588C20.7353 0.244087 20.7264 0.248712 20.7175 0.253462L2.16902 10.236C0.831596 10.9558 0.000732422 12.3465 0.000732422 13.8653V13.8753V14.5003V29.1251C0.000732422 30.7103 1.29046 32 2.87569 32H29.1253C30.7106 32 32.0003 30.7103 32.0003 29.1251V13.8753C32.0003 12.29 30.7106 11.0003 29.1253 11.0003ZM21.6474 2.02425C21.7466 1.97863 21.8293 2.007 21.8818 2.03944C21.9359 2.07288 22.0004 2.13694 22.0004 2.25212V11.0004H4.96891L21.6474 2.02425ZM30.0003 29.1251C30.0003 29.6076 29.6078 30.0001 29.1253 30.0001H2.87569C2.3932 30.0001 2.00071 29.6076 2.00071 29.1251V14.5003V13.8753C2.00071 13.3928 2.3932 13.0003 2.87569 13.0003H29.1253C29.6078 13.0003 30.0003 13.3928 30.0003 13.8753V29.1251Z" fill="black"/>
<path d="M25.9998 23.5002C24.8969 23.5002 23.9998 22.6031 23.9998 21.5002C23.9998 20.3974 24.8969 19.5002 25.9998 19.5002C27.1026 19.5002 27.9998 20.3974 27.9998 21.5002C27.9998 22.6031 27.1025 23.5002 25.9998 23.5002ZM25.9998 21.5002C25.9998 21.5011 25.9998 21.5015 25.9998 21.5016L25.9998 21.5002Z" fill="black"/>
</svg>
